<svg width="129" height="28" viewBox="0 0 129 28" fill="none" xmlns="http://www.w3.org/2000/svg">
<g clip-path="url(#clip0_71_2)">
<path d="M2.48579 4.28248C2.25613 4.29599 2.20209 4.3095 2.20209 4.43108C2.20209 4.56618 2.26964 4.56618 2.51281 4.56618H3.13424C4.28253 4.56618 4.79589 5.51183 4.79589 6.80873C4.79589 8.57845 3.87725 9.05128 3.2153 9.05128C2.56685 9.05128 1.45908 8.74056 1.06731 7.84895C1.49961 7.91649 1.89138 7.67332 1.89138 7.18699C1.89138 6.79522 1.60768 6.52503 1.22942 6.52503C0.905197 6.52503 0.553955 6.71416 0.553955 7.22751C0.553955 8.42985 1.75629 9.41603 3.25582 9.41603C4.86344 9.41603 6.05226 8.18668 6.05226 6.82223C6.05226 5.57938 5.05257 4.6067 3.75567 4.37704C4.93098 4.03931 5.6875 3.05313 5.6875 1.9994C5.6875 0.932163 4.57974 0.148621 3.26933 0.148621C1.9184 0.148621 0.918707 0.97269 0.918707 1.95887C0.918707 2.49925 1.3375 2.60732 1.54014 2.60732C1.82383 2.60732 2.14806 2.40468 2.14806 1.9994C2.14806 1.5671 1.82383 1.37797 1.52663 1.37797C1.44557 1.37797 1.41855 1.37797 1.37802 1.39148C1.89138 0.472845 3.16126 0.472845 3.2288 0.472845C3.67461 0.472845 4.55272 0.675486 4.55272 1.9994C4.55272 2.25608 4.51219 3.0126 4.12042 3.5935C3.71514 4.18791 3.25582 4.22844 2.89107 4.24195L2.48579 4.28248Z" fill="white"/>
<path d="M12.666 4.80934C12.666 3.68807 12.5985 2.59381 12.1121 1.5671C11.5583 0.445827 10.5856 0.148621 9.92363 0.148621C9.14009 0.148621 8.18093 0.540392 7.68108 1.66167C7.30282 2.51276 7.16772 3.35033 7.16772 4.80934C7.16772 6.11975 7.26229 7.10593 7.74863 8.06509C8.27549 9.0918 9.20763 9.41603 9.91012 9.41603C11.0854 9.41603 11.7609 8.71354 12.1527 7.93C12.639 6.9168 12.666 5.59289 12.666 4.80934ZM9.91012 9.14584C9.47782 9.14584 8.59971 8.90267 8.34304 7.43016C8.19443 6.6196 8.19443 5.59289 8.19443 4.64723C8.19443 3.53946 8.19443 2.53977 8.41058 1.74272C8.64024 0.837598 9.32922 0.418808 9.91012 0.418808C10.4235 0.418808 11.207 0.729522 11.4637 1.89133C11.6393 2.66136 11.6393 3.7286 11.6393 4.64723C11.6393 5.55236 11.6393 6.57907 11.4907 7.40314C11.234 8.88916 10.3829 9.14584 9.91012 9.14584Z" fill="white"/>
<path d="M14.9569 1.39146C15.5378 1.58059 16.0106 1.5941 16.1592 1.5941C17.6858 1.5941 18.6584 0.472824 18.6584 0.283694C18.6584 0.229656 18.6314 0.162109 18.5504 0.162109C18.5234 0.162109 18.4963 0.162109 18.3747 0.216147C17.6182 0.540371 16.9698 0.580899 16.6185 0.580899C15.7269 0.580899 15.092 0.310712 14.8353 0.202638C14.7407 0.162109 14.7137 0.162109 14.7002 0.162109C14.5921 0.162109 14.5921 0.243165 14.5921 0.459315V4.47159C14.5921 4.71476 14.5921 4.79581 14.7542 4.79581C14.8218 4.79581 14.8353 4.7823 14.9704 4.62019C15.3487 4.06631 15.9836 3.74208 16.6591 3.74208C17.3751 3.74208 17.7263 4.40404 17.8344 4.6337C18.064 5.16057 18.0775 5.82252 18.0775 6.33588C18.0775 6.84923 18.0775 7.61927 17.6993 8.22719C17.4021 8.71352 16.8752 9.05126 16.2808 9.05126C15.3892 9.05126 14.5111 8.44333 14.2679 7.45715C14.3355 7.48417 14.4165 7.49768 14.4841 7.49768C14.7137 7.49768 15.0785 7.36259 15.0785 6.90327C15.0785 6.52501 14.8218 6.30886 14.4841 6.30886C14.2409 6.30886 13.8896 6.43044 13.8896 6.95731C13.8896 8.1056 14.8083 9.41601 16.3078 9.41601C17.8344 9.41601 19.1718 8.13262 19.1718 6.41693C19.1718 4.80932 18.0911 3.4719 16.6726 3.4719C15.9025 3.4719 15.3081 3.80963 14.9569 4.18789V1.39146Z" fill="white"/>
<path d="M24.7184 0.337713C24.7184 0.0810349 24.7184 0.0134888 24.5293 0.0134888C24.4212 0.0134888 24.3807 0.013489 24.2726 0.175601L20.2063 6.48446V6.87623H23.7593V8.10558C23.7593 8.60543 23.7322 8.74052 22.7461 8.74052H22.4759V9.13229C22.7866 9.10527 23.8538 9.10528 24.2321 9.10528C24.6103 9.10528 25.6911 9.10527 26.0018 9.13229V8.74052H25.7316C24.7589 8.74052 24.7184 8.60543 24.7184 8.10558V6.87623H26.0829V6.48446H24.7184V0.337713ZM23.8268 1.39144V6.48446H20.544L23.8268 1.39144Z" fill="white"/>
<path d="M32.8725 0.743014V0.432299H29.6167C27.9821 0.432299 27.9551 0.256678 27.9011 0H27.6038L27.1851 2.70187H27.4823C27.5228 2.4587 27.6444 1.62112 27.82 1.47252C27.9281 1.39146 28.9413 1.39146 29.1304 1.39146H31.9944L30.5624 3.44488C30.1976 3.97175 28.8332 6.18728 28.8332 8.72703C28.8332 8.87564 28.8332 9.41601 29.3871 9.41601C29.9545 9.41601 29.9545 8.88915 29.9545 8.71352V8.03806C29.9545 6.02517 30.2787 4.45808 30.9136 3.55296L32.8725 0.743014Z" fill="white"/>
<path d="M33.0694 14.624H0V15.1643H33.0694V14.624Z" fill="white"/>
<path d="M4.87687 18.7437C4.87687 18.487 4.87687 18.4194 4.68773 18.4194C4.57966 18.4194 4.53913 18.4194 4.43106 18.5815L0.364746 24.8904V25.2822H3.9177V26.5115C3.9177 27.0114 3.89068 27.1465 2.9045 27.1465H2.63432V27.5382C2.94503 27.5112 4.01227 27.5112 4.39053 27.5112C4.76879 27.5112 5.84954 27.5112 6.16025 27.5382V27.1465H5.89006C4.91739 27.1465 4.87687 27.0114 4.87687 26.5115V25.2822H6.24131V24.8904H4.87687V18.7437ZM3.98525 19.7974V24.8904H0.702479L3.98525 19.7974Z" fill="white"/>
<path d="M9.09956 22.6884C8.8699 22.7019 8.81586 22.7154 8.81586 22.837C8.81586 22.9721 8.88341 22.9721 9.12658 22.9721H9.74801C10.8963 22.9721 11.4097 23.9177 11.4097 25.2146C11.4097 26.9843 10.491 27.4572 9.82906 27.4572C9.18062 27.4572 8.07285 27.1464 7.68108 26.2548C8.11338 26.3224 8.50515 26.0792 8.50515 25.5929C8.50515 25.2011 8.22145 24.9309 7.84319 24.9309C7.51897 24.9309 7.16772 25.12 7.16772 25.6334C7.16772 26.8357 8.37006 27.8219 9.86959 27.8219C11.4772 27.8219 12.666 26.5926 12.666 25.2281C12.666 23.9853 11.6663 23.0126 10.3694 22.7829C11.5448 22.4452 12.3013 21.459 12.3013 20.4053C12.3013 19.338 11.1935 18.5545 9.8831 18.5545C8.53217 18.5545 7.53248 19.3786 7.53248 20.3648C7.53248 20.9051 7.95127 21.0132 8.15391 21.0132C8.4376 21.0132 8.76183 20.8106 8.76183 20.4053C8.76183 19.973 8.4376 19.7839 8.1404 19.7839C8.05934 19.7839 8.03232 19.7839 7.99179 19.7974C8.50515 18.8787 9.77503 18.8787 9.84257 18.8787C10.2884 18.8787 11.1665 19.0814 11.1665 20.4053C11.1665 20.662 11.126 21.4185 10.7342 21.9994C10.3289 22.5938 9.86959 22.6343 9.50484 22.6478L9.09956 22.6884Z" fill="white"/>
<path d="M19.1718 25.2686H18.8746C18.8341 25.4983 18.726 26.2413 18.5909 26.4575C18.4963 26.5791 17.7263 26.5791 17.321 26.5791H14.8218C15.1865 26.2683 16.0106 25.4037 16.3619 25.0795C18.4153 23.1882 19.1718 22.4857 19.1718 21.1483C19.1718 19.5947 17.9425 18.5545 16.3754 18.5545C14.8083 18.5545 13.8896 19.8919 13.8896 21.0537C13.8896 21.7427 14.4841 21.7427 14.5246 21.7427C14.8083 21.7427 15.1595 21.5401 15.1595 21.1078C15.1595 20.7295 14.9028 20.4728 14.5246 20.4728C14.403 20.4728 14.376 20.4728 14.3355 20.4863C14.5921 19.5677 15.3216 18.9463 16.1997 18.9463C17.348 18.9463 18.0505 19.9054 18.0505 21.1483C18.0505 22.2966 17.3886 23.2963 16.6185 24.1609L13.8896 27.214V27.5382H18.8206L19.1718 25.2686Z" fill="white"/>
<path d="M25.8938 23.2152C25.8938 22.094 25.8263 20.9997 25.3399 19.973C24.786 18.8517 23.8134 18.5545 23.1514 18.5545C22.3679 18.5545 21.4087 18.9463 20.9089 20.0676C20.5306 20.9186 20.3955 21.7562 20.3955 23.2152C20.3955 24.5256 20.4901 25.5118 20.9764 26.471C21.5033 27.4977 22.4354 27.8219 23.1379 27.8219C24.3132 27.8219 24.9887 27.1194 25.3805 26.3359C25.8668 25.3227 25.8938 23.9988 25.8938 23.2152ZM23.1379 27.5517C22.7056 27.5517 21.8275 27.3086 21.5708 25.836C21.4222 25.0255 21.4222 23.9988 21.4222 23.0531C21.4222 21.9453 21.4222 20.9457 21.6384 20.1486C21.868 19.2435 22.557 18.8247 23.1379 18.8247C23.6513 18.8247 24.4348 19.1354 24.6915 20.2972C24.8671 21.0672 24.8671 22.1345 24.8671 23.0531C24.8671 23.9582 24.8671 24.985 24.7185 25.809C24.4618 27.295 23.6107 27.5517 23.1379 27.5517Z" fill="white"/>
<path d="M32.5076 23.2152C32.5076 22.094 32.44 20.9997 31.9537 19.973C31.3998 18.8517 30.4271 18.5545 29.7652 18.5545C28.9816 18.5545 28.0225 18.9463 27.5226 20.0676C27.1444 20.9186 27.0093 21.7562 27.0093 23.2152C27.0093 24.5256 27.1038 25.5118 27.5902 26.471C28.117 27.4977 29.0492 27.8219 29.7517 27.8219C30.927 27.8219 31.6025 27.1194 31.9942 26.3359C32.4806 25.3227 32.5076 23.9988 32.5076 23.2152ZM29.7517 27.5517C29.3194 27.5517 28.4413 27.3086 28.1846 25.836C28.036 25.0255 28.036 23.9988 28.036 23.0531C28.036 21.9453 28.036 20.9457 28.2521 20.1486C28.4818 19.2435 29.1708 18.8247 29.7517 18.8247C30.265 18.8247 31.0486 19.1354 31.3052 20.2972C31.4809 21.0672 31.4809 22.1345 31.4809 23.0531C31.4809 23.9582 31.4809 24.985 31.3323 25.809C31.0756 27.295 30.2245 27.5517 29.7517 27.5517Z" fill="white"/>
<path d="M47.9265 10.0096C47.9265 9.71238 47.8454 9.57729 47.7374 9.57729C47.6698 9.57729 47.5617 9.67186 47.5482 9.92853C47.4942 11.2254 46.6026 11.9684 45.6569 11.9684C44.8058 11.9684 44.1574 11.3875 43.4954 10.8066C42.8065 10.1852 42.104 9.56378 41.1853 9.56378C39.7128 9.56378 38.9158 11.0498 38.9158 12.2792C38.9158 12.7115 39.0914 12.7115 39.1049 12.7115C39.2535 12.7115 39.294 12.4413 39.294 12.4007C39.3481 10.9147 40.3613 10.3203 41.1853 10.3203C42.0364 10.3203 42.6849 10.9012 43.3468 11.4821C44.0358 12.1035 44.7383 12.725 45.6569 12.725C47.1295 12.725 47.9265 11.2389 47.9265 10.0096Z" fill="white"/>
<path d="M47.4013 14.4574C47.5904 14.4574 47.8336 14.4574 47.8336 14.2142C47.8336 13.9575 47.6039 13.9575 47.4013 13.9575H39.4443C39.2551 13.9575 39.012 13.9575 39.012 14.2007C39.012 14.4574 39.2416 14.4574 39.4443 14.4574H47.4013ZM47.4013 16.9701C47.5904 16.9701 47.8336 16.9701 47.8336 16.7269C47.8336 16.4703 47.6039 16.4703 47.4013 16.4703H39.4443C39.2551 16.4703 39.012 16.4703 39.012 16.7134C39.012 16.9701 39.2416 16.9701 39.4443 16.9701H47.4013Z" fill="white"/>
<path d="M58.4849 13.9485C58.4849 12.8272 58.4173 11.733 57.931 10.7063C57.3771 9.58499 56.4044 9.28778 55.7425 9.28778C54.9589 9.28778 53.9998 9.67955 53.4999 10.8008C53.1217 11.6519 52.9866 12.4895 52.9866 13.9485C52.9866 15.2589 53.0811 16.2451 53.5675 17.2043C54.0943 18.231 55.0265 18.5552 55.729 18.5552C56.9043 18.5552 57.5797 17.8527 57.9715 17.0692C58.4579 16.056 58.4849 14.732 58.4849 13.9485ZM55.729 18.285C55.2967 18.285 54.4186 18.0418 54.1619 16.5693C54.0133 15.7588 54.0133 14.732 54.0133 13.7864C54.0133 12.6786 54.0133 11.6789 54.2294 10.8819C54.4591 9.97676 55.1481 9.55797 55.729 9.55797C56.2423 9.55797 57.0259 9.86868 57.2825 11.0305C57.4582 11.8005 57.4582 12.8678 57.4582 13.7864C57.4582 14.6915 57.4582 15.7182 57.3096 16.5423C57.0529 18.0283 56.2018 18.285 55.729 18.285Z" fill="white"/>
<path d="M61.5323 17.623C61.5323 17.2312 61.2081 16.9611 60.8839 16.9611C60.4921 16.9611 60.2219 17.2853 60.2219 17.6095C60.2219 18.0013 60.5461 18.2715 60.8704 18.2715C61.2621 18.2715 61.5323 17.9472 61.5323 17.623Z" fill="white"/>
<path d="M69.1379 9.88217V9.57146H65.8821C64.2475 9.57146 64.2205 9.39584 64.1664 9.13916H63.8692L63.4504 11.841H63.7476C63.7882 11.5979 63.9098 10.7603 64.0854 10.6117C64.1935 10.5306 65.2067 10.5306 65.3958 10.5306H68.2598L66.8278 12.584C66.463 13.1109 65.0986 15.3264 65.0986 17.8662C65.0986 18.0148 65.0986 18.5552 65.6525 18.5552C66.2199 18.5552 66.2199 18.0283 66.2199 17.8527V17.1772C66.2199 15.1643 66.5441 13.5972 67.179 12.6921L69.1379 9.88217Z" fill="white"/>
<path d="M75.387 13.9485C75.387 12.8272 75.3194 11.733 74.8331 10.7063C74.2792 9.58499 73.3065 9.28778 72.6446 9.28778C71.861 9.28778 70.9019 9.67955 70.402 10.8008C70.0238 11.6519 69.8887 12.4895 69.8887 13.9485C69.8887 15.2589 69.9832 16.2451 70.4696 17.2043C70.9964 18.231 71.9286 18.5552 72.6311 18.5552C73.8064 18.5552 74.4818 17.8527 74.8736 17.0692C75.36 16.056 75.387 14.732 75.387 13.9485ZM72.6311 18.285C72.1988 18.285 71.3207 18.0418 71.064 16.5693C70.9154 15.7588 70.9154 14.732 70.9154 13.7864C70.9154 12.6786 70.9154 11.6789 71.1315 10.8819C71.3612 9.97676 72.0502 9.55797 72.6311 9.55797C73.1444 9.55797 73.928 9.86868 74.1846 11.0305C74.3603 11.8005 74.3603 12.8678 74.3603 13.7864C74.3603 14.6915 74.3603 15.7182 74.2117 16.5423C73.955 18.0283 73.1039 18.285 72.6311 18.285Z" fill="white"/>
<path d="M82.3657 9.88217V9.57146H79.1099C77.4753 9.57146 77.4483 9.39584 77.3942 9.13916H77.097L76.6782 11.841H76.9754C77.016 11.5979 77.1375 10.7603 77.3132 10.6117C77.4212 10.5306 78.4344 10.5306 78.6236 10.5306H81.4875L80.0556 12.584C79.6908 13.1109 78.3264 15.3264 78.3264 17.8662C78.3264 18.0148 78.3264 18.5552 78.8802 18.5552C79.4476 18.5552 79.4476 18.0283 79.4476 17.8527V17.1772C79.4476 15.1643 79.7719 13.5972 80.4068 12.6921L82.3657 9.88217Z" fill="white"/>
<path d="M86.4533 9.61201C86.4533 9.30129 86.4533 9.28778 86.1831 9.28778C85.8589 9.65253 85.1835 10.1524 83.792 10.1524V10.5441C84.1027 10.5441 84.7782 10.5442 85.5212 10.1929V17.2313C85.5212 17.7176 85.4807 17.8797 84.2918 17.8797H83.873V18.2715C84.2378 18.2445 85.5482 18.2445 85.994 18.2445C86.4398 18.2445 87.7367 18.2445 88.1015 18.2715V17.8797H87.6827C86.4939 17.8797 86.4533 17.7176 86.4533 17.2313V9.61201Z" fill="white"/>
<path d="M95.2288 13.9485C95.2288 12.8272 95.1612 11.733 94.6749 10.7063C94.121 9.58499 93.1483 9.28778 92.4864 9.28778C91.7028 9.28778 90.7437 9.67955 90.2438 10.8008C89.8656 11.6519 89.7305 12.4895 89.7305 13.9485C89.7305 15.2589 89.825 16.2451 90.3114 17.2043C90.8382 18.231 91.7704 18.5552 92.4729 18.5552C93.6482 18.5552 94.3236 17.8527 94.7154 17.0692C95.2018 16.056 95.2288 14.732 95.2288 13.9485ZM92.4729 18.285C92.0406 18.285 91.1625 18.0418 90.9058 16.5693C90.7572 15.7588 90.7572 14.732 90.7572 13.7864C90.7572 12.6786 90.7572 11.6789 90.9733 10.8819C91.203 9.97676 91.892 9.55797 92.4729 9.55797C92.9862 9.55797 93.7698 9.86868 94.0264 11.0305C94.2021 11.8005 94.2021 12.8678 94.2021 13.7864C94.2021 14.6915 94.2021 15.7182 94.0535 16.5423C93.7968 18.0283 92.9457 18.285 92.4729 18.285Z" fill="white"/>
<path d="M97.452 13.5702C97.452 10.1524 99.1137 9.61201 99.8432 9.61201C100.329 9.61201 100.816 9.76061 101.073 10.1659C100.91 10.1659 100.397 10.1659 100.397 10.7198C100.397 11.017 100.6 11.2737 100.951 11.2737C101.289 11.2737 101.518 11.071 101.518 10.6792C101.518 9.97676 101.005 9.28778 99.8296 9.28778C98.1275 9.28778 96.3442 11.0305 96.3442 14.0025C96.3442 17.7176 97.9654 18.5552 99.1137 18.5552C100.586 18.5552 101.843 17.2718 101.843 15.5156C101.843 13.7188 100.586 12.5165 99.2352 12.5165C98.0329 12.5165 97.5871 13.5567 97.452 13.935V13.5702ZM99.1137 18.1904C98.2626 18.1904 97.8573 17.4339 97.7357 17.1502C97.6141 16.799 97.479 16.137 97.479 15.1914C97.479 14.1241 97.9654 12.7867 99.1812 12.7867C99.9242 12.7867 100.316 13.2865 100.519 13.7459C100.735 14.2457 100.735 14.9212 100.735 15.5021C100.735 16.1911 100.735 16.799 100.478 17.3123C100.14 17.9608 99.654 18.1904 99.1137 18.1904Z" fill="white"/>
<path d="M107.281 9.47693C107.281 9.22026 107.281 9.15271 107.092 9.15271C106.984 9.15271 106.943 9.15271 106.835 9.31482L102.769 15.6237V16.0155H106.322V17.2448C106.322 17.7446 106.295 17.8797 105.309 17.8797H105.039V18.2715C105.349 18.2445 106.417 18.2445 106.795 18.2445C107.173 18.2445 108.254 18.2445 108.565 18.2715V17.8797H108.294C107.322 17.8797 107.281 17.7446 107.281 17.2448V16.0155H108.646V15.6237H107.281V9.47693ZM106.39 10.5307V15.6237H103.107L106.39 10.5307Z" fill="white"/>
<path d="M113.044 13.3946C113.719 13.0299 114.706 12.4084 114.706 11.2737C114.706 10.0983 113.571 9.28778 112.328 9.28778C110.991 9.28778 109.937 10.274 109.937 11.5033C109.937 11.9626 110.072 12.4219 110.45 12.8813C110.599 13.0569 110.612 13.0704 111.558 13.7324C110.247 14.3403 109.572 15.2454 109.572 16.2316C109.572 17.6636 110.936 18.5552 112.314 18.5552C113.814 18.5552 115.07 17.4474 115.07 16.0289C115.07 14.651 114.098 14.0431 113.044 13.3946ZM111.207 12.1788C111.031 12.0572 110.491 11.706 110.491 11.044C110.491 10.1659 111.409 9.61201 112.314 9.61201C113.287 9.61201 114.152 10.3145 114.152 11.2872C114.152 12.1112 113.557 12.7732 112.774 13.2055L111.207 12.1788ZM111.842 13.9215L113.476 14.9887C113.827 15.2184 114.449 15.6372 114.449 16.4612C114.449 17.488 113.409 18.1904 112.328 18.1904C111.18 18.1904 110.193 17.3529 110.193 16.2316C110.193 15.1779 110.963 14.3268 111.842 13.9215Z" fill="white"/>
<path d="M119.523 9.61201C119.523 9.30129 119.523 9.28778 119.252 9.28778C118.928 9.65253 118.253 10.1524 116.861 10.1524V10.5441C117.172 10.5441 117.848 10.5442 118.591 10.1929V17.2313C118.591 17.7176 118.55 17.8797 117.361 17.8797H116.942V18.2715C117.307 18.2445 118.618 18.2445 119.063 18.2445C119.509 18.2445 120.806 18.2445 121.171 18.2715V17.8797H120.752C119.563 17.8797 119.523 17.7176 119.523 17.2313V9.61201Z" fill="white"/>
<path d="M127.123 9.47693C127.123 9.22026 127.123 9.15271 126.934 9.15271C126.826 9.15271 126.785 9.15271 126.677 9.31482L122.611 15.6237V16.0155H126.164V17.2448C126.164 17.7446 126.137 17.8797 125.15 17.8797H124.88V18.2715C125.191 18.2445 126.258 18.2445 126.636 18.2445C127.015 18.2445 128.095 18.2445 128.406 18.2715V17.8797H128.136C127.163 17.8797 127.123 17.7446 127.123 17.2448V16.0155H128.487V15.6237H127.123V9.47693ZM126.231 10.5307V15.6237H122.948L126.231 10.5307Z" fill="white"/>
</g>
<defs>
<clipPath id="clip0_71_2">
<rect width="128.487" height="27.8219" fill="white"/>
</clipPath>
</defs>
</svg>
