<svg width="113" height="31" viewBox="0 0 113 31" fill="none" xmlns="http://www.w3.org/2000/svg">
<g clip-path="url(#clip0_71_29)">
<path d="M9.51962 0.324225C9.51962 0.0135095 9.51962 0 9.24943 0C8.92521 0.364753 8.24974 0.864598 6.85828 0.864598V1.25637C7.16899 1.25637 7.84446 1.25637 8.58747 0.905126V7.94349C8.58747 8.42983 8.54694 8.59194 7.35812 8.59194H6.93933V8.98371C7.30409 8.95669 8.61449 8.95669 9.0603 8.95669C9.50611 8.95669 10.803 8.95669 11.1678 8.98371V8.59194H10.749C9.56015 8.59194 9.51962 8.42983 9.51962 7.94349V0.324225Z" fill="white"/>
<path d="M17.8717 14.4754H0V15.0157H17.8717V14.4754Z" fill="white"/>
<path d="M5.25516 29.268L2.87751 24.0128C2.78295 23.7967 2.7154 23.7967 2.67487 23.7967C2.66136 23.7967 2.59382 23.7967 2.44521 23.9048L1.16183 24.8774C0.986206 25.0125 0.986206 25.0531 0.986206 25.0936C0.986206 25.1611 1.02673 25.2422 1.1213 25.2422C1.20236 25.2422 1.43201 25.0531 1.58062 24.945C1.66167 24.8774 1.86431 24.7288 2.01292 24.6208L4.67426 30.4703C4.76882 30.6864 4.83637 30.6864 4.95795 30.6864C5.16059 30.6864 5.20112 30.6054 5.29569 30.4163L11.4289 17.7175C11.5235 17.5284 11.5235 17.4743 11.5235 17.4473C11.5235 17.3122 11.4154 17.1771 11.2533 17.1771C11.1452 17.1771 11.0507 17.2447 10.9426 17.4608L5.25516 29.268Z" fill="white"/>
<path d="M17.8717 17.1771H11.2578V17.7175H17.8717V17.1771Z" fill="white"/>
<path d="M17.202 26.6231H16.9047C16.8642 26.8528 16.7561 27.5958 16.6211 27.8119C16.5265 27.9335 15.7565 27.9335 15.3512 27.9335H12.8519C13.2167 27.6228 14.0408 26.7582 14.392 26.434C16.4454 24.5427 17.202 23.8402 17.202 22.5028C17.202 20.9492 15.9726 19.909 14.4055 19.909C12.8384 19.909 11.9198 21.2464 11.9198 22.4082C11.9198 23.0972 12.5142 23.0972 12.5547 23.0972C12.8384 23.0972 13.1897 22.8945 13.1897 22.4622C13.1897 22.084 12.933 21.8273 12.5547 21.8273C12.4332 21.8273 12.4061 21.8273 12.3656 21.8408C12.6223 20.9222 13.3518 20.3007 14.2299 20.3007C15.3782 20.3007 16.0807 21.2599 16.0807 22.5028C16.0807 23.6511 15.4187 24.6507 14.6487 25.5153L11.9198 28.5685V28.8927H16.8507L17.202 26.6231Z" fill="white"/>
<path d="M32.7289 9.861C32.7289 9.56379 32.6478 9.4287 32.5397 9.4287C32.4722 9.4287 32.3641 9.52327 32.3506 9.77994C32.2966 11.0768 31.405 11.8199 30.4593 11.8199C29.6082 11.8199 28.9598 11.239 28.2978 10.6581C27.6088 10.0366 26.9063 9.41519 25.9877 9.41519C24.5152 9.41519 23.7181 10.9012 23.7181 12.1306C23.7181 12.5629 23.8938 12.5629 23.9073 12.5629C24.0559 12.5629 24.0964 12.2927 24.0964 12.2522C24.1504 10.7661 25.1636 10.1717 25.9877 10.1717C26.8388 10.1717 27.4872 10.7526 28.1492 11.3335C28.8382 11.9549 29.5407 12.5764 30.4593 12.5764C31.9318 12.5764 32.7289 11.0903 32.7289 9.861Z" fill="white"/>
<path d="M32.2035 14.3087C32.3926 14.3087 32.6358 14.3087 32.6358 14.0656C32.6358 13.8089 32.4061 13.8089 32.2035 13.8089H24.2465C24.0574 13.8089 23.8142 13.8089 23.8142 14.0521C23.8142 14.3087 24.0439 14.3087 24.2465 14.3087H32.2035ZM32.2035 16.8215C32.3926 16.8215 32.6358 16.8215 32.6358 16.5783C32.6358 16.3216 32.4061 16.3216 32.2035 16.3216H24.2465C24.0574 16.3216 23.8142 16.3216 23.8142 16.5648C23.8142 16.8215 24.0439 16.8215 24.2465 16.8215H32.2035Z" fill="white"/>
<path d="M43.2871 13.7999C43.2871 12.6786 43.2196 11.5844 42.7332 10.5576C42.1794 9.43637 41.2067 9.13916 40.5447 9.13916C39.7612 9.13916 38.802 9.53093 38.3022 10.6522C37.9239 11.5033 37.7888 12.3409 37.7888 13.7999C37.7888 15.1103 37.8834 16.0965 38.3697 17.0556C38.8966 18.0823 39.8287 18.4066 40.5312 18.4066C41.7065 18.4066 42.382 17.7041 42.7738 16.9205C43.2601 15.9073 43.2871 14.5834 43.2871 13.7999ZM40.5312 18.1364C40.0989 18.1364 39.2208 17.8932 38.9641 16.4207C38.8155 15.6101 38.8155 14.5834 38.8155 13.6378C38.8155 12.53 38.8155 11.5303 39.0317 10.7333C39.2613 9.82814 39.9503 9.40935 40.5312 9.40935C41.0446 9.40935 41.8281 9.72006 42.0848 10.8819C42.2604 11.6519 42.2604 12.7191 42.2604 13.6378C42.2604 14.5429 42.2604 15.5696 42.1118 16.3937C41.8551 17.8797 41.004 18.1364 40.5312 18.1364Z" fill="white"/>
<path d="M46.3346 17.4744C46.3346 17.0827 46.0104 16.8125 45.6861 16.8125C45.2944 16.8125 45.0242 17.1367 45.0242 17.4609C45.0242 17.8527 45.3484 18.1229 45.6726 18.1229C46.0644 18.1229 46.3346 17.7987 46.3346 17.4744Z" fill="white"/>
<path d="M53.9402 9.73358V9.42287H50.6845C49.0499 9.42287 49.0228 9.24725 48.9688 8.99057H48.6716L48.2528 11.6924H48.55C48.5905 11.4493 48.7121 10.6117 48.8877 10.4631C48.9958 10.382 50.009 10.382 50.1982 10.382H53.0621L51.6301 12.4355C51.2654 12.9623 49.9009 15.1778 49.9009 17.7176C49.9009 17.8662 49.9009 18.4066 50.4548 18.4066C51.0222 18.4066 51.0222 17.8797 51.0222 17.7041V17.0286C51.0222 15.0157 51.3464 13.4487 51.9814 12.5435L53.9402 9.73358Z" fill="white"/>
<path d="M60.1893 13.7999C60.1893 12.6786 60.1218 11.5844 59.6355 10.5576C59.0816 9.43637 58.1089 9.13916 57.4469 9.13916C56.6634 9.13916 55.7042 9.53093 55.2044 10.6522C54.8261 11.5033 54.691 12.3409 54.691 13.7999C54.691 15.1103 54.7856 16.0965 55.2719 17.0556C55.7988 18.0823 56.731 18.4066 57.4334 18.4066C58.6087 18.4066 59.2842 17.7041 59.676 16.9205C60.1623 15.9073 60.1893 14.5834 60.1893 13.7999ZM57.4334 18.1364C57.0011 18.1364 56.123 17.8932 55.8664 16.4207C55.7178 15.6101 55.7178 14.5834 55.7178 13.6378C55.7178 12.53 55.7178 11.5303 55.9339 10.7333C56.1636 9.82814 56.8525 9.40935 57.4334 9.40935C57.9468 9.40935 58.7303 9.72006 58.987 10.8819C59.1626 11.6519 59.1626 12.7191 59.1626 13.6378C59.1626 14.5429 59.1626 15.5696 59.014 16.3937C58.7574 17.8797 57.9063 18.1364 57.4334 18.1364Z" fill="white"/>
<path d="M67.1679 9.73358V9.42287H63.9121C62.2775 9.42287 62.2505 9.24725 62.1965 8.99057H61.8993L61.4805 11.6924H61.7777C61.8182 11.4493 61.9398 10.6117 62.1154 10.4631C62.2235 10.382 63.2367 10.382 63.4258 10.382H66.2898L64.8578 12.4355C64.4931 12.9623 63.1286 15.1778 63.1286 17.7176C63.1286 17.8662 63.1286 18.4066 63.6825 18.4066C64.2499 18.4066 64.2499 17.8797 64.2499 17.7041V17.0286C64.2499 15.0157 64.5741 13.4487 65.209 12.5435L67.1679 9.73358Z" fill="white"/>
<path d="M71.2556 9.46338C71.2556 9.15267 71.2556 9.13916 70.9854 9.13916C70.6612 9.50391 69.9857 10.0038 68.5942 10.0038V10.3955C68.905 10.3955 69.5804 10.3955 70.3234 10.0443V17.0827C70.3234 17.569 70.2829 17.7311 69.0941 17.7311H68.6753V18.1229C69.04 18.0959 70.3505 18.0959 70.7963 18.0959C71.2421 18.0959 72.539 18.0959 72.9037 18.1229V17.7311H72.4849C71.2961 17.7311 71.2556 17.569 71.2556 17.0827V9.46338Z" fill="white"/>
<path d="M80.0309 13.7999C80.0309 12.6786 79.9633 11.5844 79.477 10.5576C78.9231 9.43637 77.9505 9.13916 77.2885 9.13916C76.505 9.13916 75.5458 9.53093 75.0459 10.6522C74.6677 11.5033 74.5326 12.3409 74.5326 13.7999C74.5326 15.1103 74.6272 16.0965 75.1135 17.0556C75.6404 18.0823 76.5725 18.4066 77.275 18.4066C78.4503 18.4066 79.1258 17.7041 79.5175 16.9205C80.0039 15.9073 80.0309 14.5834 80.0309 13.7999ZM77.275 18.1364C76.8427 18.1364 75.9646 17.8932 75.7079 16.4207C75.5593 15.6101 75.5593 14.5834 75.5593 13.6378C75.5593 12.53 75.5593 11.5303 75.7755 10.7333C76.0051 9.82814 76.6941 9.40935 77.275 9.40935C77.7883 9.40935 78.5719 9.72006 78.8286 10.8819C79.0042 11.6519 79.0042 12.7191 79.0042 13.6378C79.0042 14.5429 79.0042 15.5696 78.8556 16.3937C78.5989 17.8797 77.7478 18.1364 77.275 18.1364Z" fill="white"/>
<path d="M82.2543 13.4216C82.2543 10.0038 83.9159 9.46338 84.6454 9.46338C85.1317 9.46338 85.6181 9.61199 85.8748 10.0173C85.7126 10.0173 85.1993 10.0173 85.1993 10.5712C85.1993 10.8684 85.4019 11.125 85.7532 11.125C86.0909 11.125 86.3206 10.9224 86.3206 10.5306C86.3206 9.82814 85.8072 9.13916 84.6319 9.13916C82.9297 9.13916 81.1465 10.8819 81.1465 13.8539C81.1465 17.569 82.7676 18.4066 83.9159 18.4066C85.3884 18.4066 86.6448 17.1232 86.6448 15.367C86.6448 13.5702 85.3884 12.3679 84.0375 12.3679C82.8352 12.3679 82.3893 13.4081 82.2543 13.7864V13.4216ZM83.9159 18.0418C83.0648 18.0418 82.6595 17.2853 82.5379 17.0016C82.4164 16.6504 82.2813 15.9884 82.2813 15.0427C82.2813 13.9755 82.7676 12.6381 83.9834 12.6381C84.7265 12.6381 85.1182 13.1379 85.3209 13.5972C85.537 14.0971 85.537 14.7726 85.537 15.3535C85.537 16.0424 85.537 16.6504 85.2803 17.1637C84.9426 17.8122 84.4563 18.0418 83.9159 18.0418Z" fill="white"/>
<path d="M93.6235 9.73358V9.42287H90.3677C88.7331 9.42287 88.7061 9.24725 88.652 8.99057H88.3548L87.936 11.6924H88.2332C88.2738 11.4493 88.3954 10.6117 88.571 10.4631C88.679 10.382 89.6922 10.382 89.8814 10.382H92.7454L91.3134 12.4355C90.9486 12.9623 89.5842 15.1778 89.5842 17.7176C89.5842 17.8662 89.5842 18.4066 90.1381 18.4066C90.7055 18.4066 90.7055 17.8797 90.7055 17.7041V17.0286C90.7055 15.0157 91.0297 13.4487 91.6646 12.5435L93.6235 9.73358Z" fill="white"/>
<path d="M97.8462 13.246C98.5216 12.8812 99.5078 12.2598 99.5078 11.125C99.5078 9.94972 98.373 9.13916 97.1302 9.13916C95.7927 9.13916 94.739 10.1253 94.739 11.3547C94.739 11.814 94.8741 12.2733 95.2524 12.7326C95.401 12.9083 95.4145 12.9218 96.3601 13.5837C95.0497 14.1917 94.3743 15.0968 94.3743 16.083C94.3743 17.515 95.7387 18.4066 97.1167 18.4066C98.6162 18.4066 99.8726 17.2988 99.8726 15.8803C99.8726 14.5024 98.8999 13.8944 97.8462 13.246ZM96.0089 12.0302C95.8333 11.9086 95.2929 11.5573 95.2929 10.8954C95.2929 10.0173 96.2115 9.46338 97.1167 9.46338C98.0893 9.46338 98.9539 10.1659 98.9539 11.1385C98.9539 11.9626 98.3595 12.6246 97.576 13.0569L96.0089 12.0302ZM96.6438 13.7729L98.2785 14.8401C98.6297 15.0698 99.2511 15.4886 99.2511 16.3126C99.2511 17.3393 98.2109 18.0418 97.1302 18.0418C95.9819 18.0418 94.9957 17.2042 94.9957 16.083C94.9957 15.0292 95.7657 14.1781 96.6438 13.7729Z" fill="white"/>
<path d="M104.325 9.46338C104.325 9.15267 104.325 9.13916 104.055 9.13916C103.731 9.50391 103.055 10.0038 101.664 10.0038V10.3955C101.974 10.3955 102.65 10.3955 103.393 10.0443V17.0827C103.393 17.569 103.352 17.7311 102.163 17.7311H101.745V18.1229C102.109 18.0959 103.42 18.0959 103.866 18.0959C104.311 18.0959 105.608 18.0959 105.973 18.1229V17.7311H105.554C104.365 17.7311 104.325 17.569 104.325 17.0827V9.46338Z" fill="white"/>
<path d="M110.939 9.46338C110.939 9.15267 110.939 9.13916 110.669 9.13916C110.344 9.50391 109.669 10.0038 108.277 10.0038V10.3955C108.588 10.3955 109.264 10.3955 110.007 10.0443V17.0827C110.007 17.569 109.966 17.7311 108.777 17.7311H108.359V18.1229C108.723 18.0959 110.034 18.0959 110.479 18.0959C110.925 18.0959 112.222 18.0959 112.587 18.1229V17.7311H112.168C110.979 17.7311 110.939 17.569 110.939 17.0827V9.46338Z" fill="white"/>
</g>
<defs>
<clipPath id="clip0_71_29">
<rect width="112.587" height="30.6864" fill="white"/>
</clipPath>
</defs>
</svg>
