<svg width="72" height="51" viewBox="0 0 72 51" fill="none" xmlns="http://www.w3.org/2000/svg">
<rect width="6" height="42" rx="1" fill="white"/>
<rect x="10" y="7" width="6" height="35" rx="1" fill="white"/>
<path d="M23.0432 42V22.632H28.6592V42H23.0432ZM25.8512 19.932C24.8192 19.932 23.9792 19.632 23.3312 19.032C22.6832 18.432 22.3592 17.688 22.3592 16.8C22.3592 15.912 22.6832 15.168 23.3312 14.568C23.9792 13.968 24.8192 13.668 25.8512 13.668C26.8832 13.668 27.7232 13.956 28.3712 14.532C29.0192 15.084 29.3432 15.804 29.3432 16.692C29.3432 17.628 29.0192 18.408 28.3712 19.032C27.7472 19.632 26.9072 19.932 25.8512 19.932ZM33.4373 42V23.8H41.3153C42.9446 23.8 44.3486 24.0687 45.5273 24.606C46.706 25.126 47.616 25.88 48.2573 26.868C48.8986 27.856 49.2193 29.0347 49.2193 30.404C49.2193 31.756 48.8986 32.926 48.2573 33.914C47.616 34.902 46.706 35.6647 45.5273 36.202C44.3486 36.722 42.9446 36.982 41.3153 36.982H35.7773L37.6493 35.084V42H33.4373ZM37.6493 35.552L35.7773 33.55H41.0813C42.3813 33.55 43.352 33.2727 43.9933 32.718C44.6346 32.1633 44.9553 31.392 44.9553 30.404C44.9553 29.3987 44.6346 28.6187 43.9933 28.064C43.352 27.5093 42.3813 27.232 41.0813 27.232H35.7773L37.6493 25.23V35.552ZM52.2264 42V23.8H60.4944C62.4704 23.8 64.2124 24.1813 65.7204 24.944C67.2284 25.6893 68.407 26.738 69.2564 28.09C70.1057 29.442 70.5304 31.0453 70.5304 32.9C70.5304 34.7373 70.1057 36.3407 69.2564 37.71C68.407 39.062 67.2284 40.1193 65.7204 40.882C64.2124 41.6273 62.4704 42 60.4944 42H52.2264ZM56.4384 38.542H60.2864C61.4997 38.542 62.5484 38.3167 63.4324 37.866C64.3337 37.398 65.027 36.7393 65.5124 35.89C66.015 35.0407 66.2664 34.044 66.2664 32.9C66.2664 31.7387 66.015 30.742 65.5124 29.91C65.027 29.0607 64.3337 28.4107 63.4324 27.96C62.5484 27.492 61.4997 27.258 60.2864 27.258H56.4384V38.542Z" fill="white"/>
</svg>
